<svg id="visual" viewBox="0 0 900 600" width="900" height="600" xmlns="http://www.w3.org/2000/svg" xmlns:xlink="http://www.w3.org/1999/xlink" version="1.1"><rect x="0" y="0" width="900" height="600" fill="#dbe3e9"></rect><defs><linearGradient id="grad1_0" x1="33.3%" y1="0%" x2="100%" y2="100%"><stop offset="20%" stop-color="#969696" stop-opacity="1"></stop><stop offset="80%" stop-color="#969696" stop-opacity="1"></stop></linearGradient></defs><defs><linearGradient id="grad1_1" x1="33.3%" y1="0%" x2="100%" y2="100%"><stop offset="20%" stop-color="#969696" stop-opacity="1"></stop><stop offset="80%" stop-color="#dbe3e9" stop-opacity="1"></stop></linearGradient></defs><defs><linearGradient id="grad2_0" x1="0%" y1="0%" x2="66.7%" y2="100%"><stop offset="20%" stop-color="#969696" stop-opacity="1"></stop><stop offset="80%" stop-color="#969696" stop-opacity="1"></stop></linearGradient></defs><defs><linearGradient id="grad2_1" x1="0%" y1="0%" x2="66.7%" y2="100%"><stop offset="20%" stop-color="#dbe3e9" stop-opacity="1"></stop><stop offset="80%" stop-color="#969696" stop-opacity="1"></stop></linearGradient></defs><g transform="translate(900, 0)"><path d="M0 351.5C-28.8 355.7 -57.7 359.9 -78.2 342.7C-98.8 325.6 -111 287.1 -128.4 266.7C-145.9 246.3 -168.6 244 -185.8 233C-203 221.9 -214.7 202.1 -235.3 187.7C-256 173.2 -285.7 164.2 -304.5 146.7C-323.4 129.1 -331.3 102.9 -337.3 77C-343.3 51.1 -347.4 25.6 -351.5 0L0 0Z" fill="#b8bcbf"></path><path d="M0 175.8C-14.4 177.9 -28.8 179.9 -39.1 171.4C-49.4 162.8 -55.5 143.5 -64.2 133.3C-72.9 123.2 -84.3 122 -92.9 116.5C-101.5 111 -107.3 101 -117.7 93.8C-128 86.6 -142.9 82.1 -152.3 73.3C-161.7 64.5 -165.7 51.4 -168.7 38.5C-171.7 25.6 -173.7 12.8 -175.8 0L0 0Z" fill="#969696"></path></g><g transform="translate(0, 600)"><path d="M0 -351.5C23.3 -334.2 46.6 -316.9 70.5 -309.1C94.5 -301.2 119.1 -302.9 144 -299.1C169 -295.4 194.4 -286.2 217.6 -272.9C240.8 -259.5 261.9 -241.8 274.8 -219.2C287.8 -196.5 292.6 -168.9 299.1 -144C305.6 -119.2 313.7 -97.2 322.7 -73.7C331.7 -50.1 341.6 -25.1 351.5 0L0 0Z" fill="#b8bcbf"></path><path d="M0 -175.8C11.6 -167.1 23.3 -158.4 35.3 -154.5C47.2 -150.6 59.5 -151.4 72 -149.6C84.5 -147.7 97.2 -143.1 108.8 -136.4C120.4 -129.7 130.9 -120.9 137.4 -109.6C143.9 -98.3 146.3 -84.4 149.6 -72C152.8 -59.6 156.8 -48.6 161.4 -36.8C165.9 -25.1 170.8 -12.5 175.8 0L0 0Z" fill="#969696"></path></g></svg>