<svg id="visual" viewBox="0 0 900 600" width="900" height="600" xmlns="http://www.w3.org/2000/svg" xmlns:xlink="http://www.w3.org/1999/xlink" version="1.1"><rect x="0" y="0" width="900" height="600" fill="#e1e1e1"></rect><defs><linearGradient id="grad1_0" x1="33.3%" y1="0%" x2="100%" y2="100%"><stop offset="20%" stop-color="#fcfcfc" stop-opacity="1"></stop><stop offset="80%" stop-color="#fcfcfc" stop-opacity="1"></stop></linearGradient></defs><defs><linearGradient id="grad1_1" x1="33.3%" y1="0%" x2="100%" y2="100%"><stop offset="20%" stop-color="#fcfcfc" stop-opacity="1"></stop><stop offset="80%" stop-color="#e1e1e1" stop-opacity="1"></stop></linearGradient></defs><defs><linearGradient id="grad2_0" x1="0%" y1="0%" x2="66.7%" y2="100%"><stop offset="20%" stop-color="#fcfcfc" stop-opacity="1"></stop><stop offset="80%" stop-color="#fcfcfc" stop-opacity="1"></stop></linearGradient></defs><defs><linearGradient id="grad2_1" x1="0%" y1="0%" x2="66.7%" y2="100%"><stop offset="20%" stop-color="#e1e1e1" stop-opacity="1"></stop><stop offset="80%" stop-color="#fcfcfc" stop-opacity="1"></stop></linearGradient></defs><g transform="translate(900, 0)"><path d="M0 432.7C-24.8 411.1 -49.6 389.6 -76.5 384.5C-103.4 379.3 -132.4 390.6 -161.9 390.8C-191.3 391 -221.2 380 -239.5 358.4C-257.7 336.7 -264.5 304.3 -285 285C-305.5 265.6 -339.8 259.3 -359.7 240.4C-379.7 221.4 -385.4 189.7 -388 160.7C-390.7 131.7 -390.3 105.4 -397.2 79C-404.2 52.7 -418.4 26.3 -432.7 0L0 0Z" fill="#eeeeee"></path><path d="M0 216.3C-12.4 205.6 -24.8 194.8 -38.2 192.2C-51.7 189.7 -66.2 195.3 -80.9 195.4C-95.7 195.5 -110.6 190 -119.7 179.2C-128.9 168.3 -132.2 152.2 -142.5 142.5C-152.7 132.8 -169.9 129.7 -179.9 120.2C-189.9 110.7 -192.7 94.9 -194 80.4C-195.3 65.9 -195.1 52.7 -198.6 39.5C-202.1 26.3 -209.2 13.2 -216.3 0L0 0Z" fill="#fcfcfc"></path></g><g transform="translate(0, 600)"><path d="M0 -432.7C24.3 -413.6 48.5 -394.6 78.4 -394.3C108.3 -393.9 143.9 -412.2 165.6 -399.7C187.2 -387.2 194.9 -343.9 217.8 -325.9C240.6 -308 278.6 -315.4 304.1 -304.1C329.5 -292.7 342.5 -262.7 350.9 -234.5C359.3 -206.2 363.2 -179.8 375.1 -155.4C387 -131 406.9 -108.7 417.8 -83.1C428.7 -57.6 430.7 -28.8 432.7 0L0 0Z" fill="#eeeeee"></path><path d="M0 -216.3C12.1 -206.8 24.3 -197.3 39.2 -197.1C54.2 -197 72 -206.1 82.8 -199.9C93.6 -193.6 97.5 -171.9 108.9 -163C120.3 -154 139.3 -157.7 152 -152C164.8 -146.4 171.2 -131.3 175.4 -117.2C179.7 -103.1 181.6 -89.9 187.5 -77.7C193.5 -65.5 203.4 -54.3 208.9 -41.6C214.4 -28.8 215.4 -14.4 216.3 0L0 0Z" fill="#fcfcfc"></path></g></svg>