<svg id="visual" viewBox="0 0 900 600" width="900" height="600" xmlns="http://www.w3.org/2000/svg" xmlns:xlink="http://www.w3.org/1999/xlink" version="1.1"><rect x="0" y="0" width="900" height="600" fill="#001220"></rect><defs><linearGradient id="grad1_0" x1="33.3%" y1="0%" x2="100%" y2="100%"><stop offset="20%" stop-color="#fcfcfc" stop-opacity="1"></stop><stop offset="80%" stop-color="#fcfcfc" stop-opacity="1"></stop></linearGradient></defs><defs><linearGradient id="grad1_1" x1="33.3%" y1="0%" x2="100%" y2="100%"><stop offset="20%" stop-color="#fcfcfc" stop-opacity="1"></stop><stop offset="80%" stop-color="#001220" stop-opacity="1"></stop></linearGradient></defs><defs><linearGradient id="grad2_0" x1="0%" y1="0%" x2="66.7%" y2="100%"><stop offset="20%" stop-color="#fcfcfc" stop-opacity="1"></stop><stop offset="80%" stop-color="#fcfcfc" stop-opacity="1"></stop></linearGradient></defs><defs><linearGradient id="grad2_1" x1="0%" y1="0%" x2="66.7%" y2="100%"><stop offset="20%" stop-color="#001220" stop-opacity="1"></stop><stop offset="80%" stop-color="#fcfcfc" stop-opacity="1"></stop></linearGradient></defs><g transform="translate(900, 0)"><path d="M0 486.7C-14.4 440 -28.8 393.3 -47.3 389.1C-65.7 385 -88.3 423.4 -106.7 433C-125.2 442.7 -139.5 423.7 -158.5 418C-177.5 412.2 -201.2 419.7 -215.2 410C-229.2 400.2 -233.4 373.3 -253.4 367.1C-273.3 360.8 -308.8 375.2 -322.8 364.3C-336.7 353.4 -329.1 317.2 -329.3 291.8C-329.5 266.4 -337.5 251.8 -339.9 234.6C-342.3 217.4 -339 197.6 -356 186.8C-372.9 176 -410.1 174.1 -427.3 162.1C-444.5 150 -441.8 127.8 -437.9 107.9C-434 88.1 -428.9 70.6 -436.8 53C-444.7 35.4 -465.7 17.7 -486.7 0L0 0Z" fill="#767c85"></path><path d="M0 243.4C-7.2 220 -14.4 196.7 -23.6 194.6C-32.9 192.5 -44.1 211.7 -53.4 216.5C-62.6 221.4 -69.8 211.9 -79.3 209C-88.8 206.1 -100.6 209.8 -107.6 205C-114.6 200.1 -116.7 186.7 -126.7 183.5C-136.6 180.4 -154.4 187.6 -161.4 182.2C-168.4 176.7 -164.6 158.6 -164.7 145.9C-164.8 133.2 -168.8 125.9 -169.9 117.3C-171.1 108.7 -169.5 98.8 -178 93.4C-186.5 88 -205 87.1 -213.7 81C-222.3 75 -220.9 63.9 -218.9 54C-217 44 -214.4 35.3 -218.4 26.5C-222.4 17.7 -232.9 8.9 -243.4 0L0 0Z" fill="#fcfcfc"></path></g><g transform="translate(0, 600)"><path d="M0 -486.7C19.5 -486.6 39.1 -486.4 58.7 -483.2C78.3 -480 97.9 -473.8 112.7 -457.3C127.5 -440.8 137.4 -414.1 152.8 -403C168.2 -391.9 189.1 -396.5 205.9 -392.3C222.6 -388 235.1 -375 256.2 -371.2C277.3 -367.3 306.8 -372.6 315.6 -356.3C324.5 -340 312.5 -302.1 316.6 -280.5C320.7 -258.9 340.8 -253.5 347.3 -239.7C353.8 -226 346.8 -203.9 369.2 -193.8C391.7 -183.6 443.5 -185.4 445.1 -168.8C446.6 -152.2 397.8 -117.2 388.4 -95.7C378.9 -74.2 408.9 -66.1 431.8 -52.4C454.8 -38.7 470.8 -19.4 486.7 0L0 0Z" fill="#767c85"></path><path d="M0 -243.4C9.8 -243.3 19.5 -243.2 29.3 -241.6C39.1 -240 49 -236.9 56.4 -228.7C63.8 -220.4 68.7 -207 76.4 -201.5C84.1 -196 94.6 -198.2 102.9 -196.1C111.3 -194 117.6 -187.5 128.1 -185.6C138.6 -183.7 153.4 -186.3 157.8 -178.1C162.2 -170 156.3 -151.1 158.3 -140.3C160.3 -129.4 170.4 -126.7 173.6 -119.9C176.9 -113 173.4 -102 184.6 -96.9C195.8 -91.8 221.8 -92.7 222.5 -84.4C223.3 -76.1 198.9 -58.6 194.2 -47.9C189.5 -37.1 204.4 -33.1 215.9 -26.2C227.4 -19.4 235.4 -9.7 243.4 0L0 0Z" fill="#fcfcfc"></path></g></svg>